<!DOCTYPE svg PUBLIC "-//W3C//DTD SVG 1.1//EN" "http://www.w3.org/Graphics/SVG/1.1/DTD/svg11.dtd">
<svg fill="#ffffff" height="800px" width="800px" version="1.1" id="Layer_1" xmlns="http://www.w3.org/2000/svg" xmlns:xlink="http://www.w3.org/1999/xlink" viewBox="0 0 512 512" xml:space="preserve" stroke="#ffffff">

<g id="SVGRepo_bgCarrier" stroke-width="0"/>

<g id="SVGRepo_tracerCarrier" stroke-linecap="round" stroke-linejoin="round"/>

<g id="SVGRepo_iconCarrier"> <g> <g> <g> <circle cx="229.172" cy="332.49" r="7.989"/> <circle cx="255.618" cy="275.863" r="7.989"/> <path d="M265.525,147.408c-4.435,0-8.028,3.593-8.028,8.028v8.085c0,4.435,3.593,8.028,8.028,8.028 c4.435,0,8.028-3.593,8.028-8.028v-8.085C273.553,151.001,269.96,147.408,265.525,147.408z"/> <path d="M512,152.019c0-66.835-54.375-121.21-121.21-121.21c-41.888,0-80.066,21.198-102.225,56.039 c-19.199-20.257-46.213-32.065-74.355-32.065c-56.397,0-102.279,45.882-102.279,102.28c0,16.56,3.935,32.574,11.438,47.019 c-3.903,8.049-6.094,17.075-6.094,26.604c0,4.435,3.594,8.028,8.028,8.028c4.433,0,8.028-3.593,8.028-8.028 c0-3.087,0.314-6.102,0.907-9.017c11.402,19.986,6.853,38.07,0.621,50.117c-0.705,1.363-1.476,2.706-2.281,4.039H81.606 c-4.434,0-8.028,3.593-8.028,8.028c0,4.435,3.594,8.028,8.028,8.028h38.203c-10.996,10.921-25.133,19.646-39.82,24.594H8.028 c-4.434,0-8.028,3.593-8.028,8.028c0,4.435,3.594,8.028,8.028,8.028h18.536c-7.01,7.063-11.348,16.783-11.348,27.497 c0,21.537,17.522,39.058,39.058,39.058c40.798,0,73.192,5.625,106.031,12.199c-0.98,1.332-1.567,2.97-1.567,4.751 c0,35.925,29.228,65.154,65.154,65.154c30.865,0,56.766-21.579,63.457-50.438c13.448,0.849,27.827,1.335,43.415,1.335 c73.047,0,132.476-59.429,132.476-132.476c0-15.51-2.637-30.623-7.847-45.021C490.483,232.46,512,193.785,512,152.019z M223.893,465.134c-27.073,0-49.098-22.025-49.098-49.098c0-0.642-0.083-1.264-0.226-1.862c4.646,0.946,9.312,1.895,14.022,2.834 c0.481,3.974,3.86,7.056,7.964,7.056c3.024,0,5.655-1.673,7.024-4.143c11.73,2.207,23.886,4.289,36.821,6.088 c-3.388,5.585-9.509,9.338-16.505,9.338c-4.434,0-8.028,3.593-8.028,8.028c0,4.435,3.594,8.028,8.028,8.028 c15.261,0,28.294-9.717,33.241-23.287c4.543,0.51,9.197,0.976,13.96,1.401C265.219,450.052,246.291,465.134,223.893,465.134z M208.446,404.494c3.525-4.705,9.127-7.77,15.446-7.77c8.556,0,15.819,5.598,18.347,13.32 C230.414,408.392,219.241,406.501,208.446,404.494z M441.545,244.129c-3.598,1.987-5.113,6.37-3.512,10.155 c6.072,14.353,9.151,29.604,9.151,45.327c0,64.194-52.226,116.42-116.42,116.42c-14.956,0-28.79-0.46-41.75-1.267 c-0.683-35.34-29.622-63.883-65.122-63.883H71.725c-4.434,0-8.028,3.593-8.028,8.028c0,4.435,3.594,8.028,8.028,8.028h152.168 c26.239,0,47.736,20.69,49.035,46.614c-4.737-0.421-9.367-0.883-13.884-1.389c-1.936-17.686-16.958-31.494-35.15-31.494 c-14.232,0-26.519,8.454-32.124,20.601c-5.088-1.015-10.124-2.039-15.138-3.061c-38.325-7.806-74.525-15.179-122.356-15.179 c-12.684,0-23.003-10.32-23.003-23.003c0-12.685,10.32-23.004,23.003-23.004c9.031,0,18.533-1.554,28.018-4.492h80.29 c4.434,0,8.028-3.593,8.028-8.028c0-4.435-3.594-8.028-8.028-8.028h-47.478c10.223-7.059,19.058-15.46,25.945-24.594h37.419 c33.743,0,61.195-27.451,61.195-61.195s-27.452-61.195-61.195-61.195c-17.511,0-33.317,7.405-44.482,19.235 c-3.949-9.992-6.002-20.684-6.002-31.663c0-47.544,38.679-86.225,86.224-86.225c27.509,0,52.728,12.671,69.19,34.764 c1.659,2.225,4.353,3.439,7.118,3.202c2.768-0.236,5.216-1.885,6.475-4.361c18.053-35.515,53.994-57.577,93.798-57.577 c57.983,0,105.154,47.172,105.154,105.154C495.944,190.303,475.1,225.596,441.545,244.129z M178.469,247.999 c-9.548,0-17.315-7.768-17.315-17.314c0-9.548,7.767-17.316,17.315-17.316c9.547,0,17.314,7.768,17.314,17.316 c0,4.435,3.594,8.028,8.028,8.028c4.433,0,8.028-3.593,8.028-8.028c0-18.401-14.97-33.371-33.37-33.371 c-12.783,0-23.903,7.227-29.506,17.807c-1.492-2.754-3.178-5.473-5.069-8.143c-0.659-0.927-1.298-1.866-1.919-2.814 c8.215-11.272,21.509-18.618,36.494-18.618c24.89,0,45.139,20.249,45.139,45.139s-20.25,45.139-45.139,45.139h-27.73 c3.025-6.572,5.006-13.236,5.937-19.901c5.852,5.06,13.469,8.132,21.794,8.132c4.434,0,8.028-3.593,8.028-8.028 C186.497,251.594,182.903,247.999,178.469,247.999z"/> <circle cx="371.066" cy="79.435" r="7.989"/> <circle cx="176.372" cy="130.348" r="7.989"/> <circle cx="345.446" cy="366.897" r="7.989"/> <circle cx="413.346" cy="335.208" r="7.989"/> <path d="M391.503,183.932c-4.435,0-8.028,3.593-8.028,8.028c0,6.068-4.937,11.005-11.006,11.005 c-6.068,0-11.005-4.937-11.005-11.005c0-4.435-3.593-8.028-8.028-8.028c-4.435,0-8.028,3.593-8.028,8.028 c0,6.068-4.937,11.005-11.006,11.005c-6.068,0-11.005-4.937-11.005-11.005c0-4.435-3.593-8.028-8.028-8.028 c-4.435,0-8.028,3.593-8.028,8.028c0,7.428,3.01,14.165,7.872,19.06v6.252c0,21.077,17.145,38.222,38.222,38.222 c21.076,0,38.222-17.145,38.222-38.222v-6.253c4.863-4.895,7.872-11.632,7.872-19.06 C399.531,187.525,395.937,183.932,391.503,183.932z M353.437,239.439c-11.693,0-21.275-9.106-22.087-20.595 c1.003,0.113,2.021,0.177,3.053,0.177c7.413,0,14.141-2.997,19.034-7.843c4.892,4.846,11.619,7.843,19.032,7.843 c1.033,0,2.051-0.064,3.054-0.177C374.712,230.333,365.129,239.439,353.437,239.439z"/> <path d="M441.348,147.408c-4.434,0-8.028,3.593-8.028,8.028v8.085c0,4.435,3.594,8.028,8.028,8.028 c4.435,0,8.028-3.593,8.028-8.028v-8.085C449.376,151.001,445.782,147.408,441.348,147.408z"/> <circle cx="471.224" cy="130.348" r="7.989"/> <circle cx="345.446" cy="125.147" r="7.989"/> <circle cx="320.758" cy="296.674" r="7.989"/> </g> </g> </g> </g>

</svg>
